<svg width="50" height="50" viewBox="0 0 50 50" fill="none" xmlns="http://www.w3.org/2000/svg">
<path d="M20.9678 29.8931V49.1925C20.9678 49.792 21.5986 50.1819 22.1349 49.9138L28.1407 46.9109C28.6871 46.6376 29.0323 46.0791 29.0323 45.4683V29.8931C29.0323 29.3363 29.2244 28.7965 29.5761 28.3649L46.2304 7.92547C46.5822 7.49383 46.7742 6.95409 46.7742 6.39725V1.61289C46.7742 0.722167 46.052 0 45.1613 0H4.83872C3.9479 0 3.22583 0.722167 3.22583 1.61289V6.39716C3.22583 6.95399 3.41792 7.49374 3.76958 7.92538L20.4239 28.3648C20.7757 28.7965 20.9678 29.3363 20.9678 29.8931Z" fill="#95DBDB"/>
<path d="M39.4878 6.45165H19.3549C18.9095 6.45165 18.5485 6.09061 18.5485 5.6452V0H4.83872C3.9479 0 3.22583 0.722167 3.22583 1.61289V6.39716C3.22583 6.95399 3.41792 7.49374 3.76958 7.92538L20.4239 28.3648C20.7757 28.7964 20.9678 29.3363 20.9678 29.8931V49.1924C20.9678 49.7919 21.5986 50.1818 22.1349 49.9137L23.8053 49.0785V29.8386C23.8053 29.3932 24.1663 29.0322 24.6117 29.0322H25.7582C26.2928 29.0322 26.7927 28.7673 27.0929 28.3249L40.5611 8.47694C41.1455 7.61571 40.5286 6.45165 39.4878 6.45165Z" fill="#49AAAA"/>
<path d="M12.0607 6.45166H3.23047C3.24277 6.98896 3.42939 7.50801 3.76953 7.92539L20.4239 28.3648C20.5881 28.5664 20.7137 28.7928 20.805 29.0323H21.3973C21.9658 29.0323 22.3557 28.46 22.1479 27.9309L14.3126 7.98632C13.9488 7.06045 13.0555 6.45166 12.0607 6.45166Z" fill="#317575"/>
</svg>
