<svg width="86" height="22" viewBox="0 0 86 22" fill="none" xmlns="http://www.w3.org/2000/svg">
<path d="M10.46 0.679999C17.04 0.679999 20.32 4.18 20.3 11.18C20.3 18.14 17.01 21.62 10.43 21.62C3.85 21.62 0.56 18.14 0.56 11.18C0.56 4.18 3.86 0.679999 10.46 0.679999ZM10.43 17.93C14.17 17.93 16.04 15.68 16.04 11.18C16.04 6.66 14.18 4.41 10.46 4.43C6.76 4.43 4.9 6.68 4.88 11.18C4.9 15.68 6.75 17.93 10.43 17.93ZM31.9902 6.68C38.1502 8.22 41.1802 12.69 41.0802 20.09C41.0602 20.93 40.5902 21.35 39.6702 21.35H37.5402C36.6802 21.35 36.2702 20.94 36.3102 20.12C36.5302 15.56 34.7702 12.5 31.0302 10.94C30.1702 13.58 29.6902 16.6 29.5902 20C29.5902 20.9 29.1502 21.35 28.2702 21.35H26.1102C25.2102 21.35 24.7902 20.95 24.8502 20.15C25.0502 14.09 25.9002 9.06 27.4002 5.06H24.7002C24.0202 5.06 23.6802 4.73 23.6802 4.07V1.94C23.6802 1.24 24.0402 0.889999 24.7602 0.889999H40.4202C41.1002 0.889999 41.4402 1.23 41.4402 1.91V4.04C41.4402 4.72 41.0502 5.06 40.2702 5.06H32.3202L31.9902 6.68ZM53.3183 6.68C59.4783 8.22 62.5083 12.69 62.4083 20.09C62.3883 20.93 61.9183 21.35 60.9983 21.35H58.8683C58.0083 21.35 57.5983 20.94 57.6383 20.12C57.8583 15.56 56.0983 12.5 52.3583 10.94C51.4983 13.58 51.0183 16.6 50.9183 20C50.9183 20.9 50.4783 21.35 49.5983 21.35H47.4383C46.5383 21.35 46.1183 20.95 46.1783 20.15C46.3783 14.09 47.2283 9.06 48.7283 5.06H46.0283C45.3483 5.06 45.0083 4.73 45.0083 4.07V1.94C45.0083 1.24 45.3683 0.889999 46.0883 0.889999H61.7483C62.4283 0.889999 62.7683 1.23 62.7683 1.91V4.04C62.7683 4.72 62.3783 5.06 61.5983 5.06H53.6483L53.3183 6.68ZM76.0264 0.679999C82.6064 0.679999 85.8864 4.18 85.8664 11.18C85.8664 18.14 82.5764 21.62 75.9964 21.62C69.4164 21.62 66.1264 18.14 66.1264 11.18C66.1264 4.18 69.4264 0.679999 76.0264 0.679999ZM75.9964 17.93C79.7364 17.93 81.6064 15.68 81.6064 11.18C81.6064 6.66 79.7464 4.41 76.0264 4.43C72.3264 4.43 70.4664 6.68 70.4464 11.18C70.4664 15.68 72.3164 17.93 75.9964 17.93Z" fill="white"/>
</svg>
