<svg width="74" height="74" viewBox="0 0 74 74" fill="none" xmlns="http://www.w3.org/2000/svg">
<path d="M4.62498 49.3334C3.77355 49.3348 3.08226 48.6457 3.08081 47.7942C3.08023 47.4118 3.22173 47.0427 3.47798 46.7588L31.228 15.9255C31.7985 15.2929 32.7737 15.2425 33.4064 15.8129C34.039 16.3834 34.0894 17.3587 33.5189 17.9913L10.1535 43.953L62.638 23.233C63.4361 22.9366 64.3235 23.3433 64.6199 24.1416C64.9078 24.917 64.5326 25.7814 63.7695 26.1005L5.1862 49.2255C5.00741 49.2961 4.81707 49.3328 4.62498 49.3334Z" fill="#ECCE81"/>
<path d="M58.9702 45.7302L61.2747 43.6816L36.6099 15.9357L34.3055 17.9842L58.9702 45.7302Z" fill="#ECCE81"/>
<path d="M64.7098 45.0754L69.3306 26.5732L66.3392 25.8262L61.7184 44.3283L64.7098 45.0754Z" fill="#ECCE81"/>
<path d="M40.0833 57.0416C39.2318 57.0439 38.5397 56.3557 38.5374 55.5041C38.5356 54.8637 38.9301 54.2887 39.5283 54.0599L59.57 46.3517C60.3652 46.046 61.2577 46.4429 61.5634 47.2381C61.8691 48.0333 61.4722 48.9258 60.677 49.2314L40.6352 56.9397C40.4589 57.0068 40.2719 57.0413 40.0833 57.0416Z" fill="#ECCE81"/>
<path d="M32.375 58.583C32.2352 58.5826 32.0962 58.5629 31.9618 58.5245L4.21178 50.8162C3.38535 50.6112 2.88151 49.7753 3.08646 48.9488C3.2914 48.1224 4.12737 47.6186 4.9538 47.8235C4.98213 47.8306 5.01031 47.8384 5.03821 47.8469L32.7882 55.5552C33.609 55.7816 34.0909 56.6305 33.8644 57.4513C33.6797 58.1211 33.0698 58.5844 32.375 58.583Z" fill="#ECCE81"/>
<path d="M63.2083 20.0416H63.0356L35.2856 16.9583C34.4389 16.8689 33.825 16.1099 33.9144 15.2633C33.9151 15.2569 33.9159 15.2504 33.9166 15.244C34.0287 14.4084 34.7789 13.8091 35.6186 13.8843L63.3686 16.9676C64.22 17.0144 64.8723 17.7425 64.8255 18.594C64.7786 19.4454 64.0505 20.0977 63.1991 20.0509L63.2083 20.0416Z" fill="#ECCE81"/>
<path d="M35.4582 55.5001C34.6314 55.5008 33.9513 54.8493 33.9164 54.0232L32.3747 17.0232C32.3383 16.1724 32.9982 15.4534 33.8489 15.4168C33.8498 15.4168 33.8508 15.4167 33.8517 15.4167C34.6991 15.392 35.4116 16.0471 35.4582 16.8937L36.9999 53.8937C37.0363 54.7444 36.3764 55.4634 35.5257 55.5C35.5248 55.5 35.5238 55.5001 35.5229 55.5001H35.4582Z" fill="#ECCE81"/>
<path d="M38.5417 55.4999C37.6902 55.5002 36.9998 54.8101 36.9995 53.9586C36.9994 53.5638 37.1507 53.1841 37.4224 52.8975L63.6307 25.1475C64.2165 24.5285 65.1932 24.5016 65.8121 25.0874C66.4311 25.6732 66.458 26.6499 65.8722 27.2688L39.6639 55.0188C39.372 55.3269 38.966 55.5009 38.5417 55.4999Z" fill="#ECCE81"/>
<path d="M33.9168 55.4999C33.4001 55.5007 32.9173 55.2425 32.631 54.8124L23.381 40.9374C23.106 40.5248 23.0464 40.0049 23.2207 39.5406L32.4707 14.8739C32.7705 14.0761 33.6601 13.6723 34.4579 13.9721C35.2557 14.2718 35.6595 15.1614 35.3598 15.9592L26.3873 39.8859L35.1995 53.1042C35.6712 53.813 35.479 54.77 34.7701 55.2418C34.5171 55.4099 34.2204 55.4998 33.9168 55.4999Z" fill="#ECCE81"/>
<path d="M3.08329 46.25C1.38042 46.25 0 47.6304 0 49.3333C0 51.0362 1.38042 52.4166 3.08329 52.4166C4.78615 52.4166 6.16657 51.0362 6.16657 49.3333C6.16657 47.6304 4.78615 46.25 3.08329 46.25Z" fill="#878787"/>
<path d="M24.6668 37C22.9639 37 21.5835 38.3804 21.5835 40.0833C21.5835 41.7862 22.9639 43.1666 24.6668 43.1666C26.3696 43.1666 27.7501 41.7862 27.7501 40.0833C27.7501 38.3804 26.3696 37 24.6668 37Z" fill="#9C27B0"/>
<path d="M67.8332 27.7499C71.239 27.7499 73.9999 24.989 73.9999 21.5832C73.9999 18.1774 71.239 15.4165 67.8332 15.4165C64.4274 15.4165 61.6665 18.1774 61.6665 21.5832C61.6665 24.989 64.4274 27.7499 67.8332 27.7499Z" fill="#BD4343"/>
<path d="M61.6668 43.1665C59.9639 43.1665 58.5835 44.5469 58.5835 46.2498C58.5835 47.9527 59.9639 49.3331 61.6668 49.3331C63.3696 49.3331 64.7501 47.9527 64.7501 46.2498C64.7501 44.5469 63.3696 43.1665 61.6668 43.1665Z" fill="#49AAAA"/>
<path d="M33.9168 12.3335C32.2139 12.3335 30.8335 13.7139 30.8335 15.4168C30.8335 17.1196 32.2139 18.5002 33.9168 18.5002C35.6196 18.5002 37.0001 17.1198 37.0001 15.4169C37.0001 13.7141 35.6196 12.3335 33.9168 12.3335Z" fill="#A8784C"/>
<path d="M35.4583 61.6665C38.0126 61.6665 40.0833 59.5958 40.0833 57.0415C40.0833 54.4872 38.0126 52.4165 35.4583 52.4165C32.9039 52.4165 30.8333 54.4872 30.8333 57.0415C30.8333 59.5958 32.9039 61.6665 35.4583 61.6665Z" fill="#317575"/>
</svg>
