<svg width="71" height="70" viewBox="0 0 71 70" fill="none" xmlns="http://www.w3.org/2000/svg">
<g clip-path="url(#clip0_133_77)">
<path d="M18.4882 54.049C13.7521 54.049 9.53932 51.0593 8.00955 46.6084L7.90609 46.273C7.54532 45.0943 7.39418 44.103 7.39418 43.1113V23.2246L0.217196 46.8444C-0.705861 50.3185 1.39756 53.9203 4.92674 54.88L50.6728 66.9586C51.2437 67.1044 51.8147 67.1743 52.377 67.1743C55.3233 67.1743 58.0155 65.2464 58.7701 62.4051L61.4353 54.049H18.4882Z" fill="#FFCE50"/>
<path d="M71.0001 9.56852V43.1114C71.0001 46.7281 68.0121 49.674 64.3437 49.674H18.4882C18.1924 49.674 17.8967 49.6446 17.6301 49.6153C14.524 49.2366 12.0983 46.7281 11.8616 43.6364C11.8318 43.4612 11.8318 43.286 11.8318 43.1114V9.56852C11.8318 5.95179 14.8198 3.00586 18.4882 3.00586H64.3437C68.0121 3.00586 71.0001 5.95179 71.0001 9.56852Z" fill="white"/>
<path d="M32.5405 17.59C32.5405 20.8115 29.8916 23.4237 26.624 23.4237C23.3559 23.4237 20.707 20.8115 20.707 17.59C20.707 14.3685 23.3559 11.7563 26.624 11.7563C29.8916 11.7563 32.5405 14.3685 32.5405 17.59Z" fill="#FFC107"/>
<path d="M71.0001 34.9153V43.1117C71.0001 46.7284 68.012 49.6743 64.3436 49.6743H18.4882C18.1924 49.6743 17.8966 49.645 17.6301 49.6156L48.1018 19.5736C50.1137 17.5901 53.4268 17.5901 55.4386 19.5736L71.0001 34.9153Z" fill="#388E3C"/>
<path d="M53.4268 49.6742H18.4882C18.1924 49.6742 17.8967 49.6449 17.6301 49.6155C14.524 49.2368 12.0983 46.7283 11.8616 43.6366L25.9138 29.7817C27.9257 27.7987 31.2387 27.7987 33.2506 29.7817L53.4268 49.6742Z" fill="#4CAF50"/>
</g>
<defs>
<clipPath id="clip0_133_77">
<rect width="71" height="70" fill="white"/>
</clipPath>
</defs>
</svg>
