<svg height="512" viewBox="0 0 176 176" width="512" xmlns="http://www.w3.org/2000/svg"><g id="Layer_2" data-name="Layer 2"><g id="_56.kakao-talk" data-name="56.kakao-talk"><circle id="background" cx="88" cy="88" fill="#ffeb3b" r="88"/><path id="icon" d="m76.37 80.66-3.17 8.94h6.33zm0 0-3.17 8.94h6.33zm11.63-38.07c-30.37 0-55 19.28-55 43.08 0 15.38 10.29 28.88 25.78 36.49-7.69 26.35-12.21 28.07 19.45 5.9a69.58 69.58 0 0 0 9.77.68c30.37 0 55-19.29 55-43.08s-24.63-43.07-55-43.07zm-30.41 58.11c-5.49 0-2.25-7.59-3.17-21.73-2-.34-8.07 1.36-8.07-3.09a3.1 3.1 0 0 1 3.11-3.08c11.54.83 19.36-2.15 19.36 3.08 0 4.53-5.84 2.71-8.06 3.09-.92 14.09 2.31 21.73-3.17 21.73zm29.84-.48c-4.93 2.24-5.05-2.81-6.23-5h-9.67c-1.19 2.24-1.29 7.28-6.23 5-3.71-1.7 2.33-10.33 6.84-24.32a4.44 4.44 0 0 1 8.45 0c4.6 14.26 10.57 22.62 6.84 24.32zm5.86 0c-5.31 0-2.08-7.17-3-24.3 0-4.17 6.48-4.16 6.48 0v18.54c3.06.41 9.78-1.51 9.78 2.89-.04 4.65-7.26 2.3-13.26 2.89zm29.34-.91-7.44-9.8-1.1 1.1v6.89a3.16 3.16 0 0 1 -3.18 3.16c-5.51 0-2.21-7.94-3.17-24.72a3.17 3.17 0 0 1 3.17-3.15c4.79 0 2.72 6.78 3.17 9.93 9-8.59 8.77-9.5 10.62-9.5 2.55 0 4.11 3.17 2.41 4.85l-7.23 7.18 7.81 10.28c2.55 3.33-2.54 7.14-5.06 3.8zm-49.43-9.71h6.33l-3.16-8.94zm3.17-8.94-3.17 8.94h6.33zm0 0-3.17 8.94h6.33z" fill="#3e2723"/></g></g></svg>